<svg width="300" height="300" viewBox="0 0 300 300" fill="none" xmlns="http://www.w3.org/2000/svg">
<g clip-path="url(#clip0_62_149)">
<path fill-rule="evenodd" clip-rule="evenodd" d="M150 0C179.667 0 208.668 8.79735 233.336 25.2796C258.003 41.7618 277.229 65.1886 288.582 92.5975C299.935 120.006 302.906 150.166 297.118 179.264C291.33 208.361 277.044 235.088 256.066 256.066C235.088 277.044 208.361 291.33 179.264 297.118C150.166 302.906 120.006 299.935 92.5975 288.582C65.1886 277.229 41.7618 258.003 25.2796 233.336C8.79735 208.668 0 179.667 0 150C0 110.218 15.8035 72.0644 43.934 43.934C72.0644 15.8035 110.218 0 150 0ZM75.0244 92.7734L151.367 154.956L224.39 92.7734H75.0244ZM70.1416 197.485L124.512 142.944L70.0928 98.6084V197.437L70.1416 197.485ZM130.444 147.827L74.4141 203.979H225.122L171.558 147.827L153.809 162.866C153.122 163.434 152.258 163.744 151.367 163.744C150.476 163.744 149.613 163.434 148.926 162.866L130.396 147.754L130.444 147.827ZM177.417 142.944L229.907 197.974V98.1201L177.417 142.847V142.944Z" fill="white"/>
</g>
<defs>
<clipPath id="clip0_62_149">
<rect width="300" height="300" fill="white"/>
</clipPath>
</defs>
</svg>
