<svg width="300" height="300" viewBox="0 0 300 300" fill="none" xmlns="http://www.w3.org/2000/svg">
<g clip-path="url(#clip0_62_140)">
<path fill-rule="evenodd" clip-rule="evenodd" d="M149.994 3.73739C67.1686 3.73739 0 70.8947 0 153.731C0 220.009 42.9741 276.215 102.575 296.058C110.077 297.447 112.834 292.797 112.834 288.833C112.834 285.256 112.684 273.441 112.623 260.918C70.8895 269.992 62.092 243.212 62.092 243.212C55.2708 225.871 45.4378 221.26 45.4378 221.26C31.8291 211.942 46.4733 212.146 46.4733 212.146C61.5324 213.199 69.4608 227.594 69.4608 227.594C82.8483 250.526 104.562 243.887 113.116 240.061C114.467 230.367 118.343 223.746 122.639 219.998C89.3199 216.216 54.2963 203.349 54.2963 145.869C54.2963 129.498 60.165 116.111 69.7486 105.613C68.1877 101.827 63.0497 86.5791 71.1938 65.9222C71.1938 65.9222 83.7891 61.8863 112.457 81.2972C124.416 77.9808 137.244 76.3088 149.984 76.2535C162.734 76.3088 175.584 77.9752 187.56 81.2972C216.189 61.8975 228.773 65.9222 228.773 65.9222C236.928 86.5847 231.813 101.843 230.251 105.614C239.868 116.111 245.687 129.498 245.687 145.869C245.687 203.482 210.586 216.149 177.195 219.864C182.577 224.515 187.382 233.645 187.382 247.63C187.382 267.689 187.211 283.855 187.211 288.788C187.211 292.78 189.913 297.447 197.52 295.985C257.086 276.132 300.006 219.919 300.006 153.681C300.006 70.8554 232.848 3.68677 150.006 3.68677L149.995 3.73692L149.994 3.73739Z" fill="white"/>
</g>
<defs>
<clipPath id="clip0_62_140">
<rect width="300" height="300" fill="white"/>
</clipPath>
</defs>
</svg>
