<svg width="300" height="300" viewBox="0 0 300 300" fill="none" xmlns="http://www.w3.org/2000/svg">
<g clip-path="url(#clip0_62_144)">
<path fill-rule="evenodd" clip-rule="evenodd" d="M278.273 0H22.6125C10.3828 0 0 9.67031 0 21.5865V278.402C0 290.33 6.81387 300 19.0383 300H274.699C286.944 300 300 290.33 300 278.402V21.5865C300 9.67031 290.513 0 278.273 0ZM114.283 114.283H154.671V134.871H155.113C161.268 123.77 179.453 112.501 201.942 112.501C245.099 112.501 257.145 135.416 257.145 177.855V257.145H214.285V185.674C214.285 166.673 206.699 150 188.957 150C167.413 150 157.143 164.583 157.143 188.53V257.145H114.283V114.283ZM42.8549 257.145H85.715V114.283H42.8549V257.145ZM91.0711 64.285C91.0711 79.0846 79.0846 91.0711 64.285 91.0711C49.4854 91.0711 37.4988 79.0846 37.4988 64.285C37.4988 49.4854 49.4854 37.4988 64.285 37.4988C79.0846 37.4988 91.0711 49.4854 91.0711 64.285Z" fill="white"/>
</g>
<defs>
<clipPath id="clip0_62_144">
<rect width="300" height="300" fill="white"/>
</clipPath>
</defs>
</svg>
